<svg xmlns="http://www.w3.org/2000/svg" xmlns:xlink="http://www.w3.org/1999/xlink" xmlns:inkscape="http://www.inkscape.org/namespaces/inkscape" version="1.1" width="283.465" height="90.8075" viewBox="0 0 283.465 90.8075">
<defs>
<clipPath id="clip_1">
<path transform="matrix(1,0,0,-1,0,90.8075)" d="M0 90.807H283.465V0H0Z"/>
</clipPath>
<clipPath id="clip_2">
<path transform="matrix(1,0,0,-1,0,90.8075)" d="M0 0H283.465V90.8075H0Z"/>
</clipPath>
</defs>
<g>
<g inkscape:groupmode="layer" inkscape:label="Calque 1">
<g clip-path="url(#clip_1)">
<g style="mix-blend-mode:multiply">
<g clip-path="url(#clip_2)">
</g>
</g>
<path transform="matrix(1,0,0,-1,61.1226,29.731503)" d="M0 0C3.681 0 6.665 2.984 6.665 6.665 6.665 10.346 3.681 13.33 0 13.33-3.681 13.33-6.665 10.346-6.665 6.665-6.665 2.984-3.681 0 0 0" fill="#1c478e"/>
<path transform="matrix(1,0,0,-1,27.6685,34.023405)" d="M0 0C3.681 0 6.665 2.984 6.665 6.665 6.665 10.346 3.681 13.33 0 13.33-3.681 13.33-6.665 10.346-6.665 6.665-6.665 2.984-3.681 0 0 0" fill="#1c478e"/>
<path transform="matrix(1,0,0,-1,61.1226,43.894)" d="M0 0C9.618 0 17.415 7.797 17.415 17.415 17.415 20.533 16.591 23.457 15.156 25.988 14.289 26.162 13.415 26.319 12.537 26.464 13.312 24.743 13.747 22.837 13.747 20.828 13.747 13.236 7.592 7.081 0 7.081-7.592 7.081-13.746 13.236-13.746 20.828-13.746 22.837-13.312 24.743-12.537 26.464-13.415 26.319-14.289 26.162-15.156 25.988-16.591 23.457-17.415 20.533-17.415 17.415-17.415 7.797-9.618 0 0 0" fill="#1c478e"/>
<path transform="matrix(1,0,0,-1,94.5771,34.023405)" d="M0 0C3.681 0 6.665 2.984 6.665 6.665 6.665 10.346 3.681 13.33 0 13.33-3.681 13.33-6.665 10.346-6.665 6.665-6.665 2.984-3.681 0 0 0" fill="#1c478e"/>
<path transform="matrix(1,0,0,-1,104.6953,43.535203)" d="M0 0C.109 .382 .215 .766 .314 1.152 .318 1.164 .321 1.176 .324 1.188 .418 1.554 .508 1.922 .593 2.291 .602 2.33 .611 2.369 .62 2.408 .799 3.188 .957 3.977 1.094 4.772 1.096 4.781 1.098 4.79 1.099 4.798 1.38 6.428 1.576 8.086 1.678 9.77 1.4 9.449 1.117 9.135 .83 8.826 .743 8.731 .653 8.639 .564 8.545 .364 8.333 .162 8.122-.042 7.916-.15 7.807-.258 7.701-.366 7.594-.559 7.404-.752 7.216-.948 7.031-1.06 6.926-1.171 6.821-1.284 6.717-1.488 6.529-1.695 6.344-1.902 6.161-2.006 6.07-2.108 5.978-2.213 5.888-2.467 5.668-2.725 5.453-2.984 5.241-3.042 5.194-3.099 5.145-3.157 5.098-3.481 4.837-3.808 4.582-4.139 4.333-4.203 4.285-4.268 4.239-4.332 4.191-4.596 3.995-4.863 3.801-5.132 3.612-5.236 3.538-5.342 3.467-5.448 3.394-5.681 3.233-5.916 3.075-6.152 2.92-13.121-1.642-21.354-3.706-29.49-3.124-28.433-3.868-27.437-4.695-26.512-5.593-20.213-6.193-13.819-5.478-7.772-3.457-10.851-12.918-17.574-20.733-26.287-25.245-26.205-24.564-26.158-23.872-26.158-23.168-26.158-13.551-33.955-5.754-43.573-5.754-53.19-5.754-60.987-13.551-60.987-23.168-60.987-23.872-60.94-24.564-60.859-25.245-70.468-20.269-77.656-11.272-80.204-.483-73 .094-65.891-1.439-59.676-4.71-59.001-4.122-58.294-3.57-57.558-3.057-64.401 1.792-72.547 4.725-81.099 5.232-81.1 5.233-81.1 5.235-81.1 5.237-83.472 5.377-85.876 5.328-88.292 5.083V5.082H-88.293L-88.291 5.077C-85.445-12.066-72.982-25.959-56.633-30.871-56.633-30.87-56.633-30.869-56.633-30.868-56.687-30.706-56.736-30.542-56.784-30.377-56.813-30.276-56.839-30.175-56.865-30.073-56.881-30.014-56.898-29.954-56.913-29.894-56.95-29.743-56.985-29.592-57.017-29.439-57.019-29.429-57.021-29.419-57.024-29.408-57.196-28.582-57.295-27.729-57.312-26.855-57.313-26.855-57.313-26.855-57.313-26.854-57.315-26.764-57.319-26.673-57.319-26.581-57.319-18.989-51.165-12.835-43.573-12.835-35.981-12.835-29.826-18.989-29.826-26.581-29.826-26.673-29.83-26.765-29.832-26.856-29.833-26.856-29.833-26.856-29.833-26.857-29.851-27.729-29.949-28.582-30.121-29.407-30.124-29.418-30.126-29.43-30.128-29.44-30.161-29.592-30.195-29.743-30.232-29.893-30.247-29.952-30.263-30.011-30.279-30.07-30.306-30.173-30.332-30.275-30.361-30.377-30.409-30.542-30.459-30.706-30.512-30.868-30.244-30.787-29.976-30.704-29.709-30.618-29.626-30.592-29.544-30.563-29.461-30.537-29.28-30.478-29.099-30.418-28.918-30.356-28.813-30.32-28.708-30.283-28.604-30.246-28.446-30.191-28.289-30.137-28.133-30.08-28.019-30.038-27.907-29.996-27.793-29.954-27.692-29.916-27.589-29.88-27.488-29.841-27.487-29.841-27.487-29.84-27.487-29.839-14.241-24.811-3.964-13.755-.006-.021V-.02C-.004-.014-.002-.007 0 0" fill="#1c478e"/>
<path transform="matrix(1,0,0,-1,135.9053,33.107404)" d="M0 0C1.828 0 3.43 .158 3.43 2.278 3.43 4.377 1.828 4.535 0 4.535H-6.633V0ZM-9.836 7.287H-.699C2.076 7.287 6.633 7.287 6.633 2.256 6.633-2.752 2.076-2.752-.699-2.752H-6.633V-9.115H-9.836Z" fill="#1c478e"/>
<path transform="matrix(1,0,0,-1,179.6582,36.378904)" d="M0 0C-.315-1.828-1.624-6.249-9.159-6.249-14.349-6.249-18.433-3.361-18.433 2.617-18.433 7.4-15.432 10.965-8.912 10.965-1.579 10.965-.496 6.205-.248 5.324H-3.451C-3.632 5.888-4.896 8.212-8.731 8.212-13.266 8.212-15.161 5.663-15.161 2.256-15.161-1.511-12.431-3.497-8.912-3.497-5.166-3.497-3.52-1.264-3.204 0Z" fill="#1c478e"/>
<path transform="matrix(1,0,0,-1,0,90.8075)" d="M182.683 64.987H185.887V48.585H182.683Z" fill="#1c478e"/>
<path transform="matrix(1,0,0,-1,189.9707,25.820305)" d="M0 0H15.094V-2.752H3.203V-6.565H13.424V-9.317H3.203V-16.402H0Z" fill="#1c478e"/>
<path transform="matrix(1,0,0,-1,0,90.8075)" d="M207.728 64.987H210.93199V48.585H207.728Z" fill="#1c478e"/>
<path transform="matrix(1,0,0,-1,232.252,36.378904)" d="M0 0C-.315-1.828-1.624-6.249-9.159-6.249-14.349-6.249-18.433-3.361-18.433 2.617-18.433 7.4-15.432 10.965-8.912 10.965-1.579 10.965-.496 6.205-.248 5.324H-3.451C-3.632 5.888-4.896 8.212-8.731 8.212-13.266 8.212-15.161 5.663-15.161 2.256-15.161-1.511-12.431-3.497-8.912-3.497-5.166-3.497-3.52-1.264-3.204 0Z" fill="#1c478e"/>
<path transform="matrix(1,0,0,-1,150.5078,28.392102)" d="M0 0-6.498-13.83H-9.904L-1.828 2.572H1.827L9.791-13.83H6.407Z" fill="#1c478e"/>
<path transform="matrix(1,0,0,-1,152.3418,37.039606)" d="M0 0C0-1.044-.847-1.891-1.891-1.891-2.935-1.891-3.781-1.044-3.781 0-3.781 1.044-2.935 1.891-1.891 1.891-.847 1.891 0 1.044 0 0" fill="#1c478e"/>
<path transform="matrix(1,0,0,-1,132.5215,62.2349)" d="M0 0C5.459 0 7.58 1.669 7.58 5.505 7.58 9.521 5.37 10.897 0 10.897H-3.249V0ZM-6.453 13.649H1.444C6.633 13.649 10.784 11.461 10.784 5.55 10.784-.045 6.994-2.752 1.579-2.752H-6.453Z" fill="#1c478e"/>
<path transform="matrix(1,0,0,-1,169.208,51.337903)" d="M0 0H-7.332V2.752H10.536V0H3.204V-13.649H0Z" fill="#1c478e"/>
<path transform="matrix(1,0,0,-1,207.5205,48.585504)" d="M0 0H3.204V-6.498H14.214V0H17.418V-16.402H14.214V-9.34H3.204V-16.402H0Z" fill="#e47f25"/>
<path transform="matrix(1,0,0,-1,246.2373,57.948205)" d="M0 0C0-5.279-3.361-7.445-8.709-7.445-14.056-7.445-17.417-5.279-17.417 0V9.363H-14.214V.226C-14.214-2.482-13.243-4.693-8.709-4.693-4.174-4.693-3.204-2.482-3.204 .226V9.363H0Z" fill="#e47f25"/>
<path transform="matrix(1,0,0,-1,260.2939,62.325204)" d="M0 0C2.031 0 3.565 .406 3.565 2.347 3.565 4.062 2.166 4.603 0 4.603H-6.971V0ZM-.09 7.265C2.008 7.265 2.934 7.784 2.934 9.16 2.934 10.559 2.008 11.078-.09 11.078H-6.971V7.265ZM-10.175 13.74H-.293C3.565 13.74 6.137 12.657 6.137 9.543 6.137 7.468 5.122 6.701 4.242 6.137 5.393 5.641 6.769 4.242 6.769 2.098 6.769-.993 4.31-2.662 .316-2.662H-10.175Z" fill="#e47f25"/>
<path transform="matrix(1,0,0,-1,154.2715,51.157205)" d="M0 0-6.497-13.83H-9.904L-1.827 2.572H1.827L9.792-13.83H6.407Z" fill="#1c478e"/>
<path transform="matrix(1,0,0,-1,156.1064,59.804704)" d="M0 0C0-1.044-.847-1.891-1.892-1.891-2.936-1.891-3.782-1.044-3.782 0-3.782 1.044-2.936 1.891-1.892 1.891-.847 1.891 0 1.044 0 0" fill="#1c478e"/>
<path transform="matrix(1,0,0,-1,187.4619,51.157205)" d="M0 0-6.498-13.83H-9.904L-1.828 2.572H1.827L9.791-13.83H6.407Z" fill="#1c478e"/>
<path transform="matrix(1,0,0,-1,189.2959,59.804704)" d="M0 0C0-1.044-.847-1.891-1.891-1.891-2.935-1.891-3.781-1.044-3.781 0-3.781 1.044-2.935 1.891-1.891 1.891-.847 1.891 0 1.044 0 0" fill="#1c478e"/>
</g>
</g>
</g>
</svg>
