<svg xmlns="http://www.w3.org/2000/svg" xmlns:xlink="http://www.w3.org/1999/xlink" xmlns:inkscape="http://www.inkscape.org/namespaces/inkscape" version="1.1" width="1240" height="320" viewBox="0 0 1240 320">
<defs>
<path id="font_1_39" d="M.085998538 .7265625H.43600465C.493337 .7265625 .54717 .7200673 .59750369 .707077 .64783737 .69408676 .6916707 .6734314 .7290039 .6451111 .7663371 .6167908 .7958374 .57980856 .8175049 .5341644 .83917239 .4885305 .8500061 .43306986 .8500061 .3677826 .8500061 .30582176 .84000656 .2518514 .8200073 .20587158 .8000081 .15990193 .77200827 .1215922 .7360077 .09094238 .70000717 .06029256 .65700277 .0374705 .6069946 .022476197 .55699667 .0074920656 .5019989 0 .44200135 0H.085998538V.7265625M.37199403 .12207031C.43266297 .12207031 .48416139 .12672933 .52648928 .13604737 .56882736 .14537557 .6034953 .160024 .63049319 .17999268 .657491 .19997151 .67715457 .22527568 .68948367 .25590516 .70182296 .28653465 .70799258 .3231608 .70799258 .3657837 .70799258 .41039024 .70166018 .44784037 .68899539 .47813417 .67633059 .5084381 .65649417 .5329132 .6294861 .55155947 .6024882 .5702057 .5676575 .5836894 .5249939 .5920105 .48233033 .6003316 .43133036 .6044922 .37199403 .6044922H.22799683V.12207031H.37199403Z"/>
<path id="font_1_36" d="M.3659973 .7265625H.5279999L.8809967 0H.7310028L.6549988 .16699219H.23599243L.15899658 0H.0079956059L.3659973 .7265625M.598999 .2890625 .44700624 .6130676 .29499818 .2890625H.598999Z"/>
<path id="font_1_55" d="M.34500123 .6044922H.020004273V.7265625H.81199648V.6044922H.4869995V0H.34500123V.6044922Z"/>
<path id="font_1_3" d="M0 0Z"/>
<path id="font_1_54" d="M.6519928 .5059509C.645991 .52195236 .6374919 .5372874 .62649539 .5519562 .61549887 .56662496 .60016378 .5794576 .5804901 .5904541 .5608266 .6014506 .53615829 .61028036 .506485 .61694338 .4768219 .6236165 .44032289 .6269531 .39698792 .6269531 .37299095 .6269531 .3494924 .62528488 .3264923 .62194827 .30349223 .6186218 .28282676 .6134593 .26449586 .6064606 .24616497 .59947207 .23149617 .5901489 .2204895 .5784912 .209493 .5668335 .20399475 .5526784 .20399475 .536026 .20399475 .5280304 .20565796 .5201976 .20898438 .51252749 .21232097 .50486758 .21965535 .4973755 .23098755 .49005128 .24232991 .48272706 .25883485 .47606407 .28050233 .47006227 .3021698 .46407066 .33100382 .45874534 .3670044 .4540863L.53900149 .4281006C.5796712 .4220988 .6160024 .4134369 .647995 .40211488 .67999777 .39079286 .7071635 .3766378 .7294922 .35964967 .75183108 .34266154 .7688344 .32250978 .7805023 .29919435 .7921702 .2758789 .79800418 .24889629 .79800418 .21824646 .79800418 .1749522 .788503 .13847859 .76950076 .10882568 .7504985 .079182948 .72466537 .05486552 .69200137 .035873414 .65933737 .01689148 .6213379 .0032399495 .5780029-.0050811769 .53466799-.013412476 .48866783-.017578125 .44000245-.017578125 .3619995-.017578125 .2978312-.00924174 .24749756 .0074310305 .1971639 .024113974 .15699768 .043792726 .1269989 .066467288 .09700012 .089152019 .075164798 .11215719 .06149292 .13548279 .04783122 .15881856 .039001466 .17748516 .035003663 .19148255L.17199707 .23448181C.17867024 .2211558 .18750508 .20699056 .19850159 .19198609 .20949809 .17699178 .22516378 .16299439 .24549866 .1499939 .26583354 .13699341 .29199729 .12615967 .32398988 .117492679 .35599265 .10882568 .3959961 .10449219 .44400025 .10449219 .4726664 .10449219 .5 .10682169 .526001 .11148071 .55200198 .1161499 .5744985 .122812908 .5934906 .13146973 .61249288 .14013672 .6276601 .15062969 .6389923 .16294861 .65033468 .17527771 .65600588 .18943787 .65600588 .20542908 .65600588 .2527415 .6033376 .2830607 .4980011 .29638673L.32400514 .32035829C.23932903 .33169047 .17448934 .355011 .12948609 .39031983 .084493007 .42563883 .06199646 .47128297 .06199646 .5272522 .06199646 .5632222 .068995159 .59369918 .08299255 .61868289 .09698995 .64367678 .114990238 .6643321 .13699341 .6806488 .15899658 .6969757 .18349712 .7094676 .210495 .7181244 .23749288 .7267914 .26348878 .7331238 .28848268 .7371216 .31348673 .7411194 .33615623 .7434489 .3564911 .7441101 .37682597 .7447815 .3916626 .7451172 .40100099 .7451172 .47899375 .7451172 .54215499 .73727419 .5904846 .72158816 .63882449 .7059021 .6766612 .68737289 .70399478 .66600039 .7313283 .64463809 .7506612 .62312319 .7619934 .6014557 .77333578 .5797882 .7813365 .5626221 .7859955 .5499573L.6519928 .5059509Z"/>
<path id="font_1_56" d="M.8580017 .31204225C.8580017 .25343833 .848999 .20332845 .83099368 .16171265 .8129985 .12009684 .7873332 .08596802 .7539978 .059326173 .7206624 .0326945 .6801605 .013219197 .63249209 .00090026858 .5848338-.01141866 .5313365-.017578125 .47200013-.017578125 .4126638-.017578125 .35916139-.01141866 .31149293 .00090026858 .26383464 .013219197 .22333782 .0326945 .19000244 .059326173 .15666707 .08596802 .1309967 .12009684 .11299133 .16171265 .09499613 .20332845 .085998538 .25343833 .085998538 .31204225V.7265625H.22799683V.32217408C.22799683 .29221598 .23132833 .26408897 .23799134 .23779297 .2446645 .211497 .2569987 .18836467 .2749939 .168396 .29299928 .14842732 .31783549 .13278198 .34950257 .12145996 .38116966 .11014811 .42200218 .10449219 .47200013 .10449219 .5219981 .10449219 .5628306 .11014811 .5944977 .12145996 .62616476 .13278198 .6509959 .14842732 .6689911 .168396 .68699648 .18836467 .6993306 .211497 .70599368 .23779297 .7126668 .26408897 .7160034 .29221598 .7160034 .32217408V.7265625H.8580017V.31204225Z"/>
<path id="font_1_53" d="M.085998538 .7265625H.522995C.56566879 .7265625 .60516867 .7235616 .64149478 .7175598 .677831 .7115682 .7091624 .7005768 .7354889 .6845856 .76182559 .66860458 .7823283 .6466217 .7969971 .6186371 .81166586 .59066268 .81900027 .554362 .81900027 .5097351 .81900027 .47643028 .8134969 .4467875 .80249026 .42080689 .7914937 .39482627 .7766622 .3728434 .7579956 .3548584 .73932906 .33687339 .71766158 .32288108 .69299319 .31288148 .66832479 .30289207 .6426595 .29723106 .6159973 .29589845L.8390045 0H.66400149L.45300294 .2861328H.22799683V0H.085998538V.7265625M.5019989 .40429688C.5306651 .40429688 .55599978 .4056244 .5780029 .40827943 .6000061 .41093446 .618337 .4159088 .6329956 .4232025 .64766439 .43050639 .65866598 .44096376 .66600039 .45457459 .6733348 .46818543 .67700198 .48561097 .67700198 .5068512 .67700198 .52809146 .6733348 .5453491 .66600039 .55862429 .65866598 .5718994 .64766439 .58218386 .6329956 .58947756 .618337 .59678146 .6000061 .60176089 .5780029 .6044159 .55599978 .6070709 .5306651 .60839846 .5019989 .60839846H.22799683V.40429688H.5019989Z"/>
<path id="font_1_41" d="M.085998538 .7265625H.7550049V.6044922H.22799683V.43652345H.68099978V.31445313H.22799683V0H.085998538V.7265625Z"/>
<path id="font_1_40" d="M.085998538 .7265625H.7380066V.6044922H.22799683V.43652345H.66700747V.31445313H.22799683V.12207031H.75V0H.085998538V.7265625Z"/>
<path id="glyph_lambda" d="M.008 0 L.366 .7265625 L.528 .7265625 L.881 0 L.731 0 L.447 .5846 L.159 0 Z"/><path id="glyph_florin" d="M.086 .7265625H.7550049V.6044922H.228V.43652345H.681V.31445313H.228V0C.228 -.13 .196 -.234 .105 -.292C.043 -.332 -.020 -.342 -.082 -.318L-.040 -.207C.004 -.223 .042 -.216 .070 -.196C.100 -.174 .086 -.084 .086 0Z"/></defs>
<use data-text="D" xlink:href="#font_1_39" transform="matrix(104,0,0,-104,40,200)" fill="#223b83"/>
<use data-text="A" xlink:href="#glyph_lambda" transform="matrix(104,0,0,-104,132.45601,200)" fill="#e37b0a"/>
<use data-text="T" xlink:href="#font_1_55" transform="matrix(104,0,0,-104,224.91202,200)" fill="#223b83"/>
<use data-text="A" xlink:href="#glyph_lambda" transform="matrix(104,0,0,-104,311.44,200)" fill="#e37b0a"/>
<use data-text=" " xlink:href="#font_1_3" transform="matrix(104,0,0,-104,403.896,200)" fill="#223b83"/>
<use data-text="S" xlink:href="#font_1_54" transform="matrix(104,0,0,-104,441.44,200)" fill="#223b83"/>
<use data-text="U" xlink:href="#font_1_56" transform="matrix(104,0,0,-104,528.072,200)" fill="#223b83"/>
<use data-text="R" xlink:href="#font_1_53" transform="matrix(104,0,0,-104,626.24807,200)" fill="#223b83"/>
<use data-text="F" xlink:href="#glyph_florin" transform="matrix(104,0,0,-104,718.70407,200)" fill="#e37b0a"/>
<use data-text="E" xlink:href="#font_1_40" transform="matrix(104,0,0,-104,799.616,200)" fill="#223b83"/>
<use data-text="R" xlink:href="#font_1_53" transform="matrix(104,0,0,-104,880.528,200)" fill="#223b83"/>
</svg>
