<?xml version="1.0" encoding="UTF-8" standalone="no"?>
<!-- Created with Inkscape (http://www.inkscape.org/) -->

<svg
   version="1.1"
   id="svg2"
   width="335.33371"
   height="118.50439"
   viewBox="0 0 335.33371 118.5044"
   sodipodi:docname="logo_vertical_white_orange.svg"
   inkscape:version="1.2.2 (b0a8486541, 2022-12-01)"
   xmlns:inkscape="http://www.inkscape.org/namespaces/inkscape"
   xmlns:sodipodi="http://sodipodi.sourceforge.net/DTD/sodipodi-0.dtd"
   xmlns="http://www.w3.org/2000/svg"
   xmlns:svg="http://www.w3.org/2000/svg">
  <defs
     id="defs6">
    <clipPath
       clipPathUnits="userSpaceOnUse"
       id="clipPath18">
      <path
         d="M 0,120.446 H 283.465 V 0 H 0 Z"
         id="path16" />
    </clipPath>
    <clipPath
       clipPathUnits="userSpaceOnUse"
       id="clipPath26">
      <path
         d="M 0,120.446 H 283.465 V 0 H 0 Z"
         id="path24" />
    </clipPath>
  </defs>
  <sodipodi:namedview
     id="namedview4"
     pagecolor="#ffffff"
     bordercolor="#666666"
     borderopacity="1.0"
     inkscape:showpageshadow="2"
     inkscape:pageopacity="0.0"
     inkscape:pagecheckerboard="0"
     inkscape:deskcolor="#d1d1d1"
     showgrid="false"
     inkscape:zoom="3.8364524"
     inkscape:cx="167.60276"
     inkscape:cy="59.169247"
     inkscape:window-width="3440"
     inkscape:window-height="1374"
     inkscape:window-x="0"
     inkscape:window-y="0"
     inkscape:window-maximized="1"
     inkscape:current-layer="g10">
    <inkscape:page
       x="0"
       y="0"
       id="page8"
       width="335.33371"
       height="118.5044" />
  </sodipodi:namedview>
  <g
     id="g10"
     inkscape:groupmode="layer"
     inkscape:label="Page 1"
     transform="matrix(1.3333333,0,0,-1.3333333,-21.309866,139.28586)">
    <g
       id="g12">
      <g
         id="g14"
         clip-path="url(#clipPath18)">
        <g
           id="g20">
          <g
             id="g22" />
          <g
             id="g30">
            <g
               clip-path="url(#clipPath26)"
               id="g28" />
          </g>
        </g>
        <g
           id="g32"
           transform="translate(141.4741,91.4754)">
          <path
             d="m 0,0 c 3.586,0 6.495,2.908 6.495,6.494 0,3.587 -2.909,6.495 -6.495,6.495 -3.586,0 -6.494,-2.908 -6.494,-6.495 C -6.494,2.908 -3.586,0 0,0"
             style="fill:#ffffff;fill-opacity:1;fill-rule:nonzero;stroke:none"
             id="path34" />
        </g>
        <g
           id="g36"
           transform="translate(108.877,87.2932)">
          <path
             d="m 0,0 c 3.586,0 6.494,2.908 6.494,6.494 0,3.587 -2.908,6.494 -6.494,6.494 -3.587,0 -6.494,-2.907 -6.494,-6.494 C -6.494,2.908 -3.587,0 0,0"
             style="fill:#ffffff;fill-opacity:1;fill-rule:nonzero;stroke:none"
             id="path38" />
        </g>
        <g
           id="g40"
           transform="translate(141.4741,77.6756)">
          <path
             d="m 0,0 c 9.372,0 16.969,7.597 16.969,16.969 0,3.038 -0.802,5.887 -2.201,8.353 -0.846,0.17 -1.696,0.323 -2.552,0.464 0.755,-1.676 1.179,-3.534 1.179,-5.492 C 13.395,12.897 7.398,6.9 0,6.9 c -7.397,0 -13.394,5.997 -13.394,13.394 0,1.958 0.423,3.816 1.178,5.492 -0.855,-0.141 -1.706,-0.294 -2.552,-0.464 -1.398,-2.466 -2.2,-5.315 -2.2,-8.353 C -16.968,7.597 -9.372,0 0,0"
             style="fill:#ffffff;fill-opacity:1;fill-rule:nonzero;stroke:none"
             id="path42" />
        </g>
        <g
           id="g44"
           transform="translate(174.0723,87.2932)">
          <path
             d="m 0,0 c 3.586,0 6.494,2.908 6.494,6.494 0,3.587 -2.908,6.494 -6.494,6.494 -3.587,0 -6.494,-2.907 -6.494,-6.494 C -6.494,2.908 -3.587,0 0,0"
             style="fill:#ffffff;fill-opacity:1;fill-rule:nonzero;stroke:none"
             id="path46" />
        </g>
        <g
           id="g48"
           transform="translate(183.9307,78.0252)">
          <path
             d="M 0,0 C 0.107,0.373 0.21,0.747 0.307,1.123 0.311,1.134 0.312,1.146 0.316,1.158 0.408,1.514 0.495,1.873 0.578,2.232 0.587,2.271 0.596,2.308 0.604,2.346 0.778,3.107 0.933,3.875 1.067,4.65 1.068,4.659 1.07,4.667 1.071,4.676 1.345,6.263 1.536,7.879 1.636,9.52 1.364,9.207 1.089,8.901 0.81,8.6 0.724,8.507 0.637,8.417 0.551,8.326 0.355,8.12 0.158,7.914 -0.041,7.713 -0.146,7.607 -0.251,7.503 -0.356,7.399 -0.544,7.214 -0.732,7.032 -0.924,6.852 -1.032,6.749 -1.141,6.646 -1.251,6.545 -1.45,6.362 -1.651,6.182 -1.854,6.003 -1.954,5.915 -2.054,5.825 -2.155,5.737 -2.403,5.523 -2.654,5.313 -2.907,5.107 -2.964,5.061 -3.02,5.013 -3.076,4.967 -3.392,4.713 -3.71,4.464 -4.032,4.222 -4.095,4.175 -4.158,4.131 -4.22,4.084 -4.479,3.893 -4.737,3.704 -5,3.52 -5.102,3.448 -5.205,3.378 -5.308,3.307 -5.535,3.151 -5.764,2.997 -5.994,2.846 c -6.79,-4.446 -14.814,-6.457 -22.74,-5.89 1.03,-0.725 2.001,-1.53 2.902,-2.406 6.137,-0.585 12.367,0.113 18.259,2.081 -2.999,-9.218 -9.551,-16.833 -18.039,-21.23 0.079,0.664 0.124,1.339 0.124,2.024 0,9.371 -7.597,16.969 -16.969,16.969 -9.371,0 -16.968,-7.598 -16.968,-16.969 0,-0.686 0.046,-1.36 0.125,-2.024 -9.363,4.849 -16.367,13.615 -18.849,24.128 7.019,0.562 13.946,-0.931 20.002,-4.119 0.657,0.574 1.346,1.112 2.064,1.612 -6.668,4.724 -14.606,7.582 -22.939,8.076 0,0.002 0,0.003 0,0.005 -2.312,0.136 -4.654,0.088 -7.008,-0.149 V 4.952 h -0.002 l 0.003,-0.005 c 2.773,-16.704 14.916,-30.242 30.847,-35.028 0,0.001 -10e-4,0.002 -10e-4,0.003 -0.051,0.159 -0.1,0.319 -0.147,0.479 -0.027,0.098 -0.053,0.197 -0.079,0.296 -0.015,0.058 -0.031,0.116 -0.046,0.175 -0.037,0.147 -0.07,0.295 -0.102,0.443 -0.002,0.01 -0.004,0.02 -0.006,0.03 -0.168,0.805 -0.264,1.636 -0.281,2.488 0,0 -10e-4,0 -10e-4,0 -0.002,0.089 -0.006,0.177 -0.006,0.267 0,7.397 5.997,13.394 13.394,13.394 7.398,0 13.395,-5.997 13.395,-13.394 0,-0.09 -0.003,-0.179 -0.005,-0.268 -0.001,0 -0.001,-0.001 -0.002,-0.001 -0.017,-0.85 -0.113,-1.681 -0.281,-2.485 -0.002,-0.011 -0.004,-0.022 -0.006,-0.033 -0.032,-0.147 -0.065,-0.294 -0.101,-0.44 -0.015,-0.058 -0.031,-0.115 -0.046,-0.173 -0.026,-0.1 -0.052,-0.2 -0.08,-0.298 -0.046,-0.161 -0.096,-0.321 -0.147,-0.48 0.261,0.078 0.522,0.161 0.782,0.244 0.081,0.026 0.161,0.053 0.242,0.08 0.177,0.057 0.352,0.115 0.529,0.175 0.102,0.035 0.204,0.072 0.306,0.107 0.153,0.054 0.307,0.107 0.459,0.163 0.111,0.039 0.221,0.081 0.331,0.122 0.099,0.037 0.199,0.072 0.298,0.11 0,0.001 0,0.001 0.001,0.002 12.906,4.9 22.92,15.672 26.776,29.055 h 0.001 C -0.003,-0.013 -0.002,-0.006 0,0"
             style="fill:#ffffff;fill-opacity:1;fill-rule:nonzero;stroke:none"
             id="path50" />
        </g>
        <g
           id="g52"
           transform="translate(25.5664,24.8626)">
          <path
             d="M 0,0 C 1.781,0 3.341,0.154 3.341,2.221 3.341,4.265 1.781,4.419 0,4.419 H -6.463 V 0 Z m -9.584,7.101 h 8.902 c 2.704,0 7.145,0 7.145,-4.903 0,-4.88 -4.441,-4.88 -7.145,-4.88 h -5.781 v -6.199 h -3.121 z"
             style="fill:#ffffff;fill-opacity:1;fill-rule:nonzero;stroke:none"
             id="path54" />
        </g>
        <g
           id="g56"
           transform="translate(68.1987,21.6751)">
          <path
             d="m 0,0 c -0.308,-1.78 -1.583,-6.089 -8.925,-6.089 -5.056,0 -9.035,2.814 -9.035,8.64 0,4.66 2.923,8.133 9.276,8.133 7.145,0 8.201,-4.638 8.442,-5.496 h -3.121 c -0.176,0.549 -1.407,2.814 -5.144,2.814 -4.419,0 -6.266,-2.484 -6.266,-5.803 0,-3.672 2.66,-5.606 6.089,-5.606 3.65,0 5.255,2.176 5.562,3.407 z"
             style="fill:#ffffff;fill-opacity:1;fill-rule:nonzero;stroke:none"
             id="path58" />
        </g>
        <path
           d="m 71.146,31.963 h 3.122 V 15.982 h -3.122 z"
           style="fill:#ffffff;fill-opacity:1;fill-rule:nonzero;stroke:none"
           id="path60" />
        <g
           id="g62"
           transform="translate(78.2471,31.9632)">
          <path
             d="M 0,0 H 14.707 V -2.682 H 3.122 V -6.396 H 13.08 V -9.079 H 3.122 v -6.902 H 0 Z"
             style="fill:#ffffff;fill-opacity:1;fill-rule:nonzero;stroke:none"
             id="path64" />
        </g>
        <path
           d="m 95.549,31.963 h 3.122 V 15.982 h -3.122 z"
           style="fill:#ffffff;fill-opacity:1;fill-rule:nonzero;stroke:none"
           id="path66" />
        <g
           id="g68"
           transform="translate(119.4458,21.6751)">
          <path
             d="m 0,0 c -0.308,-1.78 -1.583,-6.089 -8.925,-6.089 -5.056,0 -9.035,2.814 -9.035,8.64 0,4.66 2.923,8.133 9.276,8.133 7.145,0 8.201,-4.638 8.442,-5.496 h -3.121 c -0.176,0.549 -1.407,2.814 -5.144,2.814 -4.419,0 -6.266,-2.484 -6.266,-5.803 0,-3.672 2.66,-5.606 6.089,-5.606 3.65,0 5.255,2.176 5.562,3.407 z"
             style="fill:#ffffff;fill-opacity:1;fill-rule:nonzero;stroke:none"
             id="path70" />
        </g>
        <g
           id="g72"
           transform="translate(39.7949,29.4573)">
          <path
             d="m 0,0 -6.332,-13.476 h -3.319 l 7.87,15.982 H 1.78 L 9.541,-13.476 H 6.243 Z"
             style="fill:#ffffff;fill-opacity:1;fill-rule:nonzero;stroke:none"
             id="path74" />
        </g>
        <g
           id="g76"
           transform="translate(41.582,21.0315)">
          <path
             d="m 0,0 c 0,-1.018 -0.825,-1.843 -1.842,-1.843 -1.018,0 -1.843,0.825 -1.843,1.843 0,1.018 0.825,1.842 1.843,1.842 C -0.825,1.842 0,1.018 0,0"
             style="fill:#ffffff;fill-opacity:1;fill-rule:nonzero;stroke:none"
             id="path78" />
        </g>
        <g
           id="g80"
           transform="translate(209.4658,31.9632)">
          <path
             d="M 0,0 H 3.121 V -6.331 H 13.85 V 0 h 3.121 V -15.981 H 13.85 v 6.88 H 3.121 v -6.88 H 0 Z"
             style="fill:#e37b0a;fill-opacity:1;fill-rule:nonzero;stroke:none"
             id="path82" />
        </g>
        <g
           id="g84"
           transform="translate(247.1904,22.8401)">
          <path
             d="m 0,0 c 0,-5.144 -3.275,-7.254 -8.485,-7.254 -5.21,0 -8.487,2.11 -8.487,7.254 v 9.123 h 3.122 V 0.22 c 0,-2.638 0.946,-4.792 5.365,-4.792 4.418,0 5.363,2.154 5.363,4.792 V 9.123 H 0 Z"
             style="fill:#e37b0a;fill-opacity:1;fill-rule:nonzero;stroke:none"
             id="path86" />
        </g>
        <g
           id="g88"
           transform="translate(260.8877,18.5755)">
          <path
             d="M 0,0 C 1.979,0 3.474,0.396 3.474,2.286 3.474,3.957 2.11,4.484 0,4.484 H -6.793 V 0 Z m -0.088,7.079 c 2.044,0 2.946,0.506 2.946,1.847 0,1.362 -0.902,1.868 -2.946,1.868 H -6.793 V 7.079 Z m -9.827,6.309 h 9.629 c 3.76,0 6.265,-1.055 6.265,-4.089 0,-2.023 -0.989,-2.77 -1.846,-3.32 1.121,-0.483 2.462,-1.846 2.462,-3.934 0,-3.012 -2.396,-4.639 -6.287,-4.639 H -9.915 Z"
             style="fill:#e37b0a;fill-opacity:1;fill-rule:nonzero;stroke:none"
             id="path90" />
        </g>
        <g
           id="g92"
           transform="translate(136.5801,18.6633)">
          <path
             d="M 0,0 C 5.32,0 7.386,1.627 7.386,5.364 7.386,9.277 5.232,10.618 0,10.618 H -3.166 V 0 Z m -6.288,13.3 h 7.695 c 5.056,0 9.101,-2.132 9.101,-7.892 0,-5.452 -3.694,-8.09 -8.969,-8.09 h -7.827 z"
             style="fill:#ffffff;fill-opacity:1;fill-rule:nonzero;stroke:none"
             id="path94" />
        </g>
        <g
           id="g96"
           transform="translate(172.3271,29.2815)">
          <path
             d="M 0,0 H -7.144 V 2.682 H 10.267 V 0 H 3.122 V -13.3 H 0 Z"
             style="fill:#ffffff;fill-opacity:1;fill-rule:nonzero;stroke:none"
             id="path98" />
        </g>
        <g
           id="g100"
           transform="translate(157.7734,29.4573)">
          <path
             d="M 0,0 -6.331,-13.476 H -9.65 L -1.781,2.506 H 1.78 L 9.541,-13.476 H 6.243 Z"
             style="fill:#ffffff;fill-opacity:1;fill-rule:nonzero;stroke:none"
             id="path102" />
        </g>
        <g
           id="g104"
           transform="translate(159.5605,21.0315)">
          <path
             d="m 0,0 c 0,-1.018 -0.824,-1.843 -1.842,-1.843 -1.017,0 -1.843,0.825 -1.843,1.843 0,1.018 0.826,1.842 1.843,1.842 C -0.824,1.842 0,1.018 0,0"
             style="fill:#ffffff;fill-opacity:1;fill-rule:nonzero;stroke:none"
             id="path106" />
        </g>
        <g
           id="g108"
           transform="translate(190.1133,29.4573)">
          <path
             d="M 0,0 -6.331,-13.476 H -9.65 L -1.78,2.506 H 1.78 L 9.541,-13.476 H 6.243 Z"
             style="fill:#ffffff;fill-opacity:1;fill-rule:nonzero;stroke:none"
             id="path110" />
        </g>
        <g
           id="g112"
           transform="translate(191.9004,21.0315)">
          <path
             d="m 0,0 c 0,-1.018 -0.824,-1.843 -1.842,-1.843 -1.017,0 -1.843,0.825 -1.843,1.843 0,1.018 0.826,1.842 1.843,1.842 C -0.824,1.842 0,1.018 0,0"
             style="fill:#ffffff;fill-opacity:1;fill-rule:nonzero;stroke:none"
             id="path114" />
        </g>
      </g>
    </g>
  </g>
</svg>
